#N canvas 777 130 819 852 10;
#X obj 38 48 inlet~;
#X obj 88 48 inlet~;
#X obj 327 382 *~ 1e+20;
#X obj 327 406 clip~ -1 1;
#X obj 127 439 *~;
#X obj 261 730 outlet~;
#X obj 133 138 *~;
#X obj 162 138 *~;
#X obj 133 161 +~;
#X obj 166 190 q8_rsqrt~;
#X obj 150 215 *~;
#X obj 180 214 *~;
#X obj 150 237 *~;
#X obj 149 262 *~ -0.5;
#X obj 177 240 *~ 1.5;
#X obj 149 283 +~;
#X text 181 282 inverse modulus to 16 bit precision;
#X text 218 206 inverse modulus to 8 bit precision;
#X obj 132 319 *~;
#X obj 33 319 *~;
#X text 160 319 modulus to 16 bit precision;
#X obj 83 321 *~;
#X obj 400 376 outlet~;
#X obj 456 376 outlet~;
#X text 409 338 unit complex;
#X text 409 352 number out;
#X text 41 27 real;
#X text 88 25 imaginary;
#X obj 238 380 *~ 1e+20;
#X obj 238 404 clip~ -1 1;
#X obj 80 437 *~;
#X obj 94 469 -~;
#X obj 60 499 *~;
#X obj 33 499 *~;
#X text 6 501 d^3;
#X obj 62 537 -~;
#X obj 79 591 +~;
#X text 19 538 d^3-d;
#X obj 224 638 *~;
#X obj 239 604 *~;
#X obj 290 638 *~ 2;
#X text 131 455 to 1st quadrant;
#X text 128 489 (-1 to 1);
#X text 120 474 d = imag-real;
#X text 327 638 unfold twice;
#X obj 262 686 *~ 0.125;
#X obj 133 387 outlet~;
#X text 334 697 normalize to (-1 \, 1);
#X obj 263 638 -~;
#X obj 262 663 -~;
#X obj 262 708 +~ 0.5;
#X obj 62 561 *~ 0.11;
#X text 126 546 fudge to;
#X text 126 559 approximate;
#X text 125 573 4/pi*arcsin(d/2);
#X text 135 403 r out;
#X text 318 723 theta/(2pi);
#X text 319 738 out;
#N canvas 457 394 450 300 write 0;
#X obj 69 27 inlet~;
#X obj 80 56 delwrite~ \$0-del1 20;
#X obj 70 83 outlet~;
#X obj 234 30 inlet~;
#X obj 245 59 delwrite~ \$0-del2 20;
#X connect 0 0 1 0;
#X connect 0 0 2 0;
#X connect 3 0 4 0;
#X restore 541 115 pd write;
#N canvas 946 392 450 300 read 0;
#X obj 45 43 inlet~;
#X obj 94 80 delread~ \$0-del1;
#X obj 229 79 delread~ \$0-del2;
#X obj 278 41 inlet;
#X obj 94 102 outlet~;
#X obj 228 105 outlet~;
#X connect 1 0 4 0;
#X connect 2 0 5 0;
#X connect 3 0 1 0;
#X connect 3 0 2 0;
#X restore 541 137 pd read;
#X obj 541 159 *~;
#X obj 570 159 *~;
#X obj 541 182 +~;
#X obj 530 207 +~;
#X obj 563 236 q8_rsqrt~;
#X obj 547 261 *~;
#X obj 577 260 *~;
#X obj 547 283 *~;
#X obj 546 308 *~ -0.5;
#X obj 574 286 *~ 1.5;
#X obj 546 329 +~;
#X obj 548 362 *~;
#X obj 598 364 *~;
#X obj 549 391 outlet~;
#X obj 605 391 outlet~;
#X floatatom 655 214 7 0 0 0 - - -;
#X obj 721 156 mtof;
#X obj 721 134 f \$1;
#X obj 721 97 loadbang;
#X obj 656 193 expr 300./$f1;
#X connect 0 0 6 0;
#X connect 0 0 6 1;
#X connect 0 0 19 0;
#X connect 0 0 58 0;
#X connect 0 0 71 0;
#X connect 1 0 7 0;
#X connect 1 0 7 1;
#X connect 1 0 21 0;
#X connect 1 0 58 1;
#X connect 1 0 72 0;
#X connect 2 0 3 0;
#X connect 3 0 4 1;
#X connect 3 0 39 1;
#X connect 3 0 40 0;
#X connect 4 0 31 0;
#X connect 6 0 8 0;
#X connect 7 0 8 1;
#X connect 8 0 10 0;
#X connect 8 0 18 0;
#X connect 8 0 9 0;
#X connect 8 0 63 0;
#X connect 9 0 10 1;
#X connect 9 0 11 0;
#X connect 9 0 11 1;
#X connect 9 0 14 0;
#X connect 10 0 12 0;
#X connect 11 0 12 1;
#X connect 12 0 13 0;
#X connect 13 0 15 0;
#X connect 14 0 15 1;
#X connect 15 0 18 1;
#X connect 15 0 19 1;
#X connect 15 0 21 1;
#X connect 18 0 46 0;
#X connect 19 0 22 0;
#X connect 19 0 30 0;
#X connect 19 0 28 0;
#X connect 21 0 2 0;
#X connect 21 0 4 0;
#X connect 21 0 23 0;
#X connect 28 0 29 0;
#X connect 29 0 30 1;
#X connect 29 0 39 0;
#X connect 30 0 31 1;
#X connect 31 0 32 1;
#X connect 31 0 33 0;
#X connect 31 0 32 0;
#X connect 31 0 35 1;
#X connect 31 0 36 1;
#X connect 32 0 33 1;
#X connect 33 0 35 0;
#X connect 35 0 51 0;
#X connect 36 0 38 0;
#X connect 38 0 48 0;
#X connect 39 0 38 1;
#X connect 39 0 48 1;
#X connect 40 0 49 1;
#X connect 45 0 50 0;
#X connect 48 0 49 0;
#X connect 49 0 45 0;
#X connect 50 0 5 0;
#X connect 51 0 36 0;
#X connect 58 0 59 0;
#X connect 59 0 60 0;
#X connect 59 0 60 1;
#X connect 59 1 61 0;
#X connect 59 1 61 1;
#X connect 60 0 62 0;
#X connect 61 0 62 1;
#X connect 62 0 63 1;
#X connect 63 0 65 0;
#X connect 63 0 64 0;
#X connect 64 0 65 1;
#X connect 64 0 66 0;
#X connect 64 0 66 1;
#X connect 64 0 69 0;
#X connect 65 0 67 0;
#X connect 66 0 67 1;
#X connect 67 0 68 0;
#X connect 68 0 70 0;
#X connect 69 0 70 1;
#X connect 70 0 71 1;
#X connect 70 0 72 1;
#X connect 71 0 73 0;
#X connect 72 0 74 0;
#X connect 75 0 59 1;
#X connect 76 0 79 0;
#X connect 77 0 76 0;
#X connect 78 0 77 0;
#X connect 79 0 75 0;
