#N canvas 215 122 450 300 10;
#X msg 347 182 set \$1;
#X obj 347 158 r \$1;
#X obj 347 205 s \$1-set;
#X floatatom 236 103 7 0 0 0 - #1-set #1-clipme;
#X obj 307 46 loadbang;
#X obj 307 69 pack \$2 \$3;
#X obj 307 92 ==;
#X obj 338 92 !=;
#X obj 239 167 spigot;
#X obj 239 143 r \$1-clipme;
#X obj 239 216 s \$1;
#X obj 239 190 clip \$2 \$3;
#X obj 285 168 spigot;
#X text 62 17 args: name min max;
#X connect 0 0 2 0;
#X connect 1 0 0 0;
#X connect 4 0 5 0;
#X connect 5 0 6 0;
#X connect 5 0 7 0;
#X connect 6 0 12 1;
#X connect 7 0 8 1;
#X connect 8 0 11 0;
#X connect 9 0 8 0;
#X connect 9 0 12 0;
#X connect 11 0 10 0;
#X connect 12 0 10 0;
#X coords 0 -1 1 1 180 20 1 100 100;
