#N struct line-label float x float y float z symbol label;
#N canvas -60 -17 1920 976 12;
#X declare -path lib;
#X obj 783 340 bng 15 1000 50 0 empty empty empty 17 7 0 10 #fcfcfc
#000000 #000000;
#X obj 707 618 tabwrite~ array1;
#N canvas 0 50 450 250 (subpatch) 0;
#X array array1 100 float 3;
#A 0 0.00215252 -0.0165856 -0.0382326 -0.0729274 -0.12485 -0.18691
-0.241831 -0.267906 -0.247308 -0.175672 -0.0690162 0.0389555 0.112453
0.13428 0.115824 0.0867034 0.0716128 0.0737792 0.0783615 0.0704821
0.0499499 0.0299851 0.0237233 0.0327068 0.0470478 0.0545671 0.0493228
0.0334522 0.0136265 -0.00344573 -0.0140701 -0.0191164 -0.0238061 -0.034844
-0.055725 -0.0835226 -0.10998 -0.125924 -0.125152 -0.105428 -0.0680297
-0.0183804 0.0329108 0.0721174 0.0889978 0.0836226 0.0667377 0.0518682
0.0453821 0.0432738 0.0373167 0.0243465 0.00979093 0.00259296 0.00690491
0.0183098 0.0273193 0.0263552 0.0144277 -0.00314415 -0.0185899 -0.0262327
-0.0255462 -0.0214885 -0.0216345 -0.0311931 -0.0489855 -0.0676127 -0.07802
-0.074873 -0.0585305 -0.032936 -0.00261999 0.0280215 0.0537303 0.0688261
0.0703376 0.0609239 0.0476701 0.0368431 0.0293733 0.0216524 0.0108646
-0.000694771 -0.00686594 -0.0032976 0.00791448 0.0188676 0.0210575
0.010908 -0.00809274 -0.027438 -0.0383401 -0.0368384 -0.0266911 -0.0177947
-0.0200152 -0.0359553 -0.0581694 -0.0736575;
#X coords 0 1 100 -1 500 140 1 0 0;
#X restore 1400 70 graph;
#X obj 1650 260 declare -path lib;
#X obj 44 666 spectrum;
#X obj 1067 578 output~;
#X obj 634 207 *~, f 4;
#X obj 554 240 *~;
#X obj 561 282 *~, f 4;
#X obj 485 239 *~;
#X obj 406 234 *~;
#X obj 543 401 *~, f 4;
#X msg 560 333 1;
#X msg 598 336 0;
#X obj 914 667 spectrum;
#X obj 1210 171 *~, f 4;
#X obj 1148 198 *~;
#X obj 1155 240 *~, f 4;
#X obj 1079 197 *~;
#X obj 1000 192 *~;
#X msg 1034 307 1;
#X msg 1098 306 0;
#X obj 1041 360 *~, f 4;
#X obj 1332 440 +~ 1;
#X obj 1329 402 *~, f 4;
#X obj 1168 405 *~, f 4;
#X obj 1080 534 *~, f 4;
#X obj 600 287 del 1 0.5 sec;
#X obj 1196 278 del 1 0.8 sec;
#X obj 318 528 writesf~ 2;
#X msg 318 461 start;
#X msg 450 460 stop;
#X obj 1261 471 *~, f 4;
#X obj 341 222 *~;
#X obj 947 189 *~;
#X obj 46 318 exp~;
#X obj 43 390 *~;
#X obj 738 34 exp~;
#X obj 738 88 *~;
#X obj 65 343 sig~ 1;
#X obj 552 105 osc~ 1481;
#X obj 571 133 sig~ 1;
#X obj 589 258 sig~ 0.1;
#X obj 895 31 osc~ 5219;
#X obj 1211 208 sig~ 0.1;
#X obj 1310 27 sig~ 1;
#X obj 761 64 sig~ 1;
#X obj 1107 498 sig~ 1;
#X obj 1184 341 sig~ 1;
#X obj 924 396 customenv~;
#X obj 863 421 *~;
#X obj 1034 407 *~;
#X obj 359 191 *~, f 4;
#X obj 431 199 *~, f 4;
#X obj 506 208 *~, f 4;
#X obj 491 126 sig~ 0.7;
#X obj 417 101 sig~ 0.5;
#X obj 329 54 sig~ 0.35;
#X obj 317 26 osc~ 5742;
#X obj 406 56 osc~ 4224;
#X obj 481 81 osc~ 2862;
#X obj 1195 33 osc~ 1791;
#X obj 997 32 osc~ 4322;
#X obj 1093 34 osc~ 3448;
#X obj 1111 74 sig~ 0.7;
#X obj 1017 75 sig~ 0.5;
#X obj 1100 165 *~, f 4;
#X obj 1025 163 *~, f 4;
#X obj 961 155 *~, f 4;
#X obj 1313 509 *~, f 4;
#X obj 657 580 metro 100;
#X obj 556 572 tgl 15 0 empty empty empty 17 7 0 10 #fcfcfc #000000
#000000 0 1;
#X obj 1378 350 sig~ 0.1;
#X obj 1282 350 osc~ 5;
#X obj 1403 418 sig~ 2;
#X obj 929 73 sig~ 0.25;
#X obj 1596 496 *~;
#X obj 1578 412 +~;
#X obj 1843 608 *~;
#X obj 1700 557 delread~ audio-buffer;
#X obj 1737 468 hsl 128 15 0 1000 0 0 empty empty empty -2 -8 0 10
#feffc6 #000000 #000000 0 1;
#X floatatom 1697 528 5 0 0 0 - - - 0;
#X obj 1835 641 send~ fback;
#X obj 1596 352 receive~ fback;
#X obj 1350 616 +~;
#X obj 1343 567 *~;
#X obj 1624 445 sig~ 1;
#X obj 1496 627 delwrite~ audio-buffer 5000;
#X obj 1371 516 sig~ 0.3;
#X msg 160 403 open bellbird_synth_final2.wav;
#X obj 262 223 *~;
#X obj 280 192 *~, f 4;
#X obj 176 225 *~;
#X obj 195 195 *~, f 4;
#X obj 95 225 *~;
#X obj 113 183 *~, f 4;
#X obj 168 59 sig~ 0.03;
#X obj 76 74 sig~ 0.0008;
#X obj 238 27 osc~ 6916;
#X obj 156 31 osc~ 8403;
#X obj 37 20 osc~ 9083;
#X obj 250 55 sig~ 0.1;
#X obj 739 9 osc~ 149;
#X obj 46 294 osc~ 164;
#X obj 1210 645 hip~ 10;
#X obj 1874 555 sig~ 0.1;
#X connect 0 0 12 0;
#X connect 0 0 27 0;
#X connect 0 0 30 0;
#X connect 0 0 49 0;
#X connect 6 0 7 1;
#X connect 7 0 8 0;
#X connect 8 0 11 0;
#X connect 9 0 8 0;
#X connect 10 0 8 0;
#X connect 11 0 50 0;
#X connect 12 0 11 1;
#X connect 13 0 11 1;
#X connect 15 0 16 1;
#X connect 16 0 17 0;
#X connect 17 0 22 0;
#X connect 18 0 17 0;
#X connect 19 0 17 0;
#X connect 20 0 22 1;
#X connect 21 0 22 1;
#X connect 22 0 51 1;
#X connect 23 0 32 1;
#X connect 24 0 23 0;
#X connect 25 0 32 0;
#X connect 26 0 5 0;
#X connect 26 0 5 1;
#X connect 26 0 14 0;
#X connect 26 0 1 0;
#X connect 26 0 29 0;
#X connect 26 0 29 1;
#X connect 27 0 13 0;
#X connect 27 0 20 0;
#X connect 27 0 28 0;
#X connect 28 0 21 0;
#X connect 28 0 31 0;
#X connect 30 0 29 0;
#X connect 31 0 29 0;
#X connect 32 0 69 0;
#X connect 33 0 8 0;
#X connect 34 0 17 0;
#X connect 35 0 36 0;
#X connect 36 0 6 0;
#X connect 36 0 4 0;
#X connect 36 0 54 0;
#X connect 36 0 53 0;
#X connect 36 0 52 0;
#X connect 36 0 95 0;
#X connect 36 0 91 0;
#X connect 36 0 93 0;
#X connect 37 0 38 0;
#X connect 38 0 15 0;
#X connect 38 0 68 0;
#X connect 38 0 67 0;
#X connect 38 0 66 0;
#X connect 39 0 36 1;
#X connect 40 0 7 0;
#X connect 41 0 6 1;
#X connect 42 0 8 1;
#X connect 43 0 34 0;
#X connect 44 0 17 1;
#X connect 45 0 15 1;
#X connect 46 0 38 1;
#X connect 47 0 26 1;
#X connect 48 0 25 1;
#X connect 49 0 50 1;
#X connect 49 1 51 0;
#X connect 50 0 25 0;
#X connect 51 0 25 0;
#X connect 52 0 33 1;
#X connect 53 0 10 1;
#X connect 54 0 9 1;
#X connect 55 0 54 1;
#X connect 56 0 53 1;
#X connect 57 0 52 1;
#X connect 58 0 33 0;
#X connect 59 0 10 0;
#X connect 60 0 9 0;
#X connect 61 0 16 0;
#X connect 62 0 19 0;
#X connect 63 0 18 0;
#X connect 64 0 66 1;
#X connect 65 0 67 1;
#X connect 66 0 18 1;
#X connect 67 0 19 1;
#X connect 68 0 34 1;
#X connect 69 0 77 0;
#X connect 69 0 85 0;
#X connect 70 0 1 0;
#X connect 71 0 70 0;
#X connect 72 0 24 1;
#X connect 73 0 24 0;
#X connect 74 0 69 1;
#X connect 75 0 68 1;
#X connect 76 0 84 1;
#X connect 76 0 87 0;
#X connect 77 0 76 0;
#X connect 78 0 82 0;
#X connect 79 0 78 0;
#X connect 80 0 81 0;
#X connect 81 0 79 0;
#X connect 83 0 77 1;
#X connect 84 0 104 0;
#X connect 85 0 84 0;
#X connect 86 0 76 1;
#X connect 88 0 85 1;
#X connect 89 0 29 0;
#X connect 90 0 8 0;
#X connect 91 0 90 1;
#X connect 92 0 8 0;
#X connect 93 0 92 1;
#X connect 94 0 8 0;
#X connect 95 0 94 1;
#X connect 96 0 93 1;
#X connect 97 0 95 1;
#X connect 98 0 90 0;
#X connect 99 0 92 0;
#X connect 100 0 94 0;
#X connect 101 0 91 1;
#X connect 102 0 37 0;
#X connect 103 0 35 0;
#X connect 104 0 26 0;
#X connect 105 0 78 1;
#X coords 0 0 0.5 0.5 0 0 0;
