#N canvas 48 0 1920 976 12;
#X obj 88 186 belltone;
#X obj 170 187 belltone;
#X obj 249 186 belltone;
#X obj 137 42 unpack f f f f f f;
#X obj 210 363 *~;
#X obj 210 387 outlet~;
#X obj 174 242 *~ 0.333;
#X obj 289 42 inlet decay;
#X obj 137 7 inlet flist;
#X obj 262 268 vline~;
#X obj 248 333 *~;
#X msg 332 184 1 0 0 \, 0 \$1 0;
#X connect 0 0 6 0;
#X connect 1 0 6 0;
#X connect 2 0 6 0;
#X connect 3 0 0 0;
#X connect 3 1 0 1;
#X connect 3 2 1 0;
#X connect 3 3 1 1;
#X connect 3 4 2 0;
#X connect 3 5 2 1;
#X connect 4 0 5 0;
#X connect 6 0 4 0;
#X connect 7 0 11 0;
#X connect 8 0 3 0;
#X connect 9 0 10 0;
#X connect 9 0 10 1;
#X connect 10 0 4 1;
#X connect 11 0 9 0;
