#N canvas -195 48 1920 976 12;
#X declare -path ../lib;
#X obj 767 279 bellharmonics;
#X obj 1037 113 del 117;
#X obj 998 800 output~;
#X obj 1207 295 bellharmonics;
#X obj 1204 188 bng 15 250 50 0 empty empty empty 17 7 0 10 #fcfcfc
#000000 #000000;
#X obj 758 170 bng 15 250 50 0 empty empty empty 17 7 0 10 #fcfcfc
#000000 #000000;
#X obj 937 535 +~;
#X obj 840 310 *~ 0.5;
#X msg 1285 689 start;
#X msg 1338 688 stop;
#X obj 1333 812 writesf~ 1;
#X obj 1428 623 *~;
#X obj 1549 604 hsl 128 15 0 1 0 0 empty empty empty -2 -8 0 10 #fcfcfc
#000000 #000000 0 1;
#X obj 975 23 tgl 15 0 empty empty empty 17 7 0 10 #fcfcfc #000000
#000000 0 1;
#X obj 22 223 clapper;
#X obj 2277 210 declare -path ../lib;
#X obj 1039 147 clapper;
#X obj 659 754 *~;
#X obj 516 703 delread~ audio-buffer;
#X obj 561 621 hsl 128 15 0 1000 0 0 empty empty empty -2 -8 0 10 #feffc6
#000000 #000000 0 1;
#X floatatom 513 674 5 0 0 0 - - - 0;
#X obj 651 787 send~ fback;
#X obj 802 739 *~;
#X obj 722 628 +~;
#X obj 777 639 receive~ fback;
#X obj 830 688 sig~ 1;
#X obj 915 773 +~;
#X msg 764 232 3593 0.211 8952 0.794 10600 0.221;
#X msg 1197 234 3593 0.211 8952 0.794 10600 0.221;
#X obj 702 870 delwrite~ audio-buffer 5000;
#X obj 690 701 sig~ 0.1;
#X obj 486 280 bellharmonics;
#X obj 477 171 bng 15 250 50 0 empty empty empty 17 7 0 10 #fcfcfc
#000000 #000000;
#X obj 559 312 *~ 0.5;
#X msg 483 233 15743 0.029 17657 0.038 19288 0.098;
#X obj 194 279 bellharmonics;
#X obj 367 169 bng 15 250 50 0 empty empty empty 17 7 0 10 #fcfcfc
#000000 #000000;
#X obj 267 311 *~ 0.5;
#X msg 98 222 11649 0.02 12065 1 12913 0.158;
#X obj 1542 280 bellharmonics;
#X obj 1474 190 bng 15 250 50 0 empty empty empty 17 7 0 10 #fcfcfc
#000000 #000000;
#X msg 1460 232 17657 0.2 12065 1 19288 0.79;
#X obj 871 591 *~;
#X obj 821 538 sig~ 1;
#X obj 1629 321 *~ 0.15;
#X obj 1338 363 *~ 0.15;
#X msg 320 262 190;
#X msg 924 272 190;
#X msg 643 273 80;
#X obj 1756 285 bellharmonicsrf;
#X obj 1757 159 bng 15 250 50 0 empty empty empty 17 7 0 10 #fcfcfc
#000000 #000000;
#X msg 1750 205 3593 0.211 8952 0.794 10600 0.221;
#X obj 1254 108 del 34;
#X obj 965 51 metro 210, f 12;
#X obj 2013 282 bellharmonicsrf;
#X obj 2014 156 bng 15 250 50 0 empty empty empty 17 7 0 10 #fcfcfc
#000000 #000000;
#X msg 2007 202 17657 0.2 12065 1 19288 0.79;
#X msg 1140 624 open bell_trial3.wav;
#X msg 1269 260 110;
#X msg 1620 259 110;
#X msg 1874 235 1 20 0 \, 0 250 20;
#X msg 2131 234 1 20 0 \, 0 250 20;
#X obj 965 -85 bng 15 250 50 0 empty empty empty 17 7 0 10 #fcfcfc
#000000 #000000;
#X msg 938 -21 1;
#X msg 997 -20 0;
#X obj 997 -54 del 2000;
#X obj 108 314 *~ 0.01;
#X obj 1038 343 *~ 0.01;
#X obj 1755 332 *~ 0.1;
#X obj 2012 329 *~ 0.05;
#X connect 0 0 7 0;
#X connect 1 0 4 0;
#X connect 1 0 16 0;
#X connect 1 0 40 0;
#X connect 1 0 52 0;
#X connect 3 0 45 0;
#X connect 4 0 28 0;
#X connect 4 0 58 0;
#X connect 5 0 27 0;
#X connect 5 0 47 0;
#X connect 6 0 11 0;
#X connect 6 0 42 1;
#X connect 7 0 6 0;
#X connect 8 0 10 0;
#X connect 9 0 10 0;
#X connect 11 0 10 0;
#X connect 12 0 11 1;
#X connect 13 0 53 0;
#X connect 14 0 66 0;
#X connect 16 0 67 0;
#X connect 17 0 21 0;
#X connect 18 0 17 0;
#X connect 19 0 20 0;
#X connect 20 0 18 0;
#X connect 22 0 26 0;
#X connect 22 0 29 0;
#X connect 23 0 22 0;
#X connect 24 0 23 1;
#X connect 25 0 22 1;
#X connect 26 0 2 0;
#X connect 26 0 2 1;
#X connect 27 0 0 0;
#X connect 28 0 3 0;
#X connect 30 0 17 1;
#X connect 31 0 33 0;
#X connect 32 0 34 0;
#X connect 32 0 48 0;
#X connect 33 0 6 0;
#X connect 34 0 31 0;
#X connect 35 0 37 0;
#X connect 36 0 38 0;
#X connect 36 0 46 0;
#X connect 37 0 6 0;
#X connect 38 0 35 0;
#X connect 39 0 44 0;
#X connect 40 0 41 0;
#X connect 40 0 59 0;
#X connect 41 0 39 0;
#X connect 42 0 23 0;
#X connect 42 0 26 1;
#X connect 43 0 42 0;
#X connect 44 0 6 1;
#X connect 45 0 6 1;
#X connect 46 0 35 1;
#X connect 47 0 0 1;
#X connect 48 0 31 1;
#X connect 49 0 68 0;
#X connect 50 0 51 0;
#X connect 50 0 60 0;
#X connect 51 0 49 0;
#X connect 52 0 50 0;
#X connect 53 0 1 0;
#X connect 53 0 5 0;
#X connect 53 0 32 0;
#X connect 53 0 14 0;
#X connect 53 0 36 0;
#X connect 53 0 55 0;
#X connect 54 0 69 0;
#X connect 55 0 56 0;
#X connect 55 0 61 0;
#X connect 56 0 54 0;
#X connect 57 0 10 0;
#X connect 58 0 3 1;
#X connect 59 0 39 1;
#X connect 60 0 49 1;
#X connect 61 0 54 1;
#X connect 62 0 63 0;
#X connect 62 0 65 0;
#X connect 63 0 13 0;
#X connect 64 0 13 0;
#X connect 65 0 64 0;
#X connect 66 0 6 0;
#X connect 67 0 6 1;
#X connect 68 0 6 1;
#X connect 69 0 6 1;
