#N struct line-label float x float y float z symbol label;
#N canvas -78 -25 1536 781 12;
#X declare -path ../lib;
#X obj 1344 59 declare -path ../lib;
#X obj 455 763 output~;
#X obj 476 655 +~;
#X obj 588 743 spectrum;
#X obj 498 46 bng 15 250 50 0 empty empty empty 17 7 0 10 #fcfcfc #000000
#000000;
#X obj 658 380 * 1;
#X obj 348 548 bp~ 95 30;
#X obj 660 297 line;
#X obj 661 322 * 1000;
#X obj 1012 374 vline~;
#X obj 1004 434 *~;
#X obj 659 348 + 10;
#X obj 425 549 bp~ 1000 30;
#X obj 522 549 bp~ 2710 30;
#X obj 618 549 bp~ 10000 30;
#X obj 285 238 line;
#X obj 353 236 line;
#X obj 284 289 + 4, f 5;
#X obj 630 433 * 0.1;
#X obj 680 436 * 1;
#X obj 712 437 * 3;
#X obj 748 436 * 10;
#X msg 285 209 1 9000;
#X msg 353 207 1 9000;
#X msg 659 269 0 \, 1 9000;
#X obj 354 262 + -1;
#X obj 355 293 abs;
#X obj 927 352 noise~;
#X obj 959 463 *~;
#X obj 69 290 vline~;
#X obj 475 695 *~;
#X obj 477 723 +~;
#X msg 1280 346 0;
#X obj 1213 377 phasor~ 10;
#X obj 1417 369 vline~;
#X obj 1417 312 bng 15 250 50 0 empty empty empty 17 7 0 10 #fcfcfc
#000000 #000000;
#X obj 1289 449 *~;
#X msg 1417 347 0 0 0 \, 1 10 0 \, 0 80 10;
#X obj 1310 137 bng 15 250 50 0 empty empty empty 17 7 0 10 #fcfcfc
#000000 #000000;
#X obj 1628 349 vline~;
#X obj 1289 473 *~;
#X obj 1417 268 metro 250;
#X obj 976 44 del 3000;
#X msg 1627 255 0 0 0 \, 2 200 0 \, 0 1000 5000;
#X obj 890 551 hip~ 3000;
#X msg 1006 322 1 900 0 \, 0 6000 9000;
#X obj 286 263 * 5;
#X msg 67 233 1 1000 0 \, 0 1200 8000;
#X obj 1213 401 cos~;
#X text 1010 286 Creating the FIZZ;
#X text 1329 108 Create the clops;
#X text 43 155 overall amplitude env;
#X text 460 272 simulate water flow by varying fequency of sinusoid
randomly, f 17;
#X text 760 309 Bandpass filters simulate tube fix this as per resonances
seen in the spectrum \, this changes with depth of water, f 16;
#X obj 440 368 waterflow;
#X obj 451 455 *~ 2;
#X obj 1210 505 *~ 0.4;
#X obj 350 378 * 600;
#X obj 348 406 + 200;
#X obj 959 490 *~ 0.007;
#X connect 2 0 30 1;
#X connect 4 0 24 0;
#X connect 4 0 23 0;
#X connect 4 0 22 0;
#X connect 4 0 45 0;
#X connect 4 0 47 0;
#X connect 4 0 42 0;
#X connect 4 0 54 0;
#X connect 5 0 18 0;
#X connect 5 0 19 0;
#X connect 5 0 20 0;
#X connect 5 0 21 0;
#X connect 6 0 2 0;
#X connect 7 0 8 0;
#X connect 8 0 11 0;
#X connect 9 0 10 0;
#X connect 9 0 10 1;
#X connect 10 0 28 1;
#X connect 11 0 5 0;
#X connect 12 0 2 1;
#X connect 13 0 2 0;
#X connect 14 0 2 1;
#X connect 15 0 46 0;
#X connect 16 0 25 0;
#X connect 17 0 54 0;
#X connect 18 0 6 1;
#X connect 19 0 12 1;
#X connect 20 0 13 1;
#X connect 21 0 14 1;
#X connect 22 0 15 0;
#X connect 23 0 16 0;
#X connect 24 0 7 0;
#X connect 25 0 26 0;
#X connect 26 0 57 0;
#X connect 27 0 28 0;
#X connect 28 0 59 0;
#X connect 29 0 30 0;
#X connect 30 0 31 0;
#X connect 31 0 1 0;
#X connect 31 0 1 1;
#X connect 31 0 3 0;
#X connect 32 0 33 1;
#X connect 33 0 48 0;
#X connect 34 0 36 1;
#X connect 35 0 37 0;
#X connect 36 0 40 0;
#X connect 37 0 34 0;
#X connect 38 0 32 0;
#X connect 38 0 43 0;
#X connect 38 0 41 0;
#X connect 39 0 40 1;
#X connect 40 0 56 0;
#X connect 41 0 35 0;
#X connect 42 0 38 0;
#X connect 43 0 39 0;
#X connect 44 0 31 1;
#X connect 45 0 9 0;
#X connect 46 0 17 0;
#X connect 47 0 29 0;
#X connect 48 0 36 0;
#X connect 54 0 55 0;
#X connect 55 0 6 0;
#X connect 55 0 12 0;
#X connect 55 0 13 0;
#X connect 55 0 14 0;
#X connect 56 0 31 1;
#X connect 57 0 58 0;
#X connect 58 0 54 1;
#X connect 59 0 44 0;
