#N canvas 504 82 1536 781 12;
#X obj 232 270 loadbang;
#X msg 232 294 1;
#X obj 231 467 + 400;
#X obj 229 535 line~;
#X obj 229 580 osc~;
#X obj 291 579 fexpr~ $x1 - $x1[-1];
#X obj 290 614 clip~ 0 1;
#X obj 290 639 lop~ 10;
#X obj 290 662 *~;
#X obj 290 686 outlet~;
#X obj 303 270 inlet rate;
#X obj 233 348 metro 10;
#X obj 413 266 inlet depth;
#X obj 229 499 pack 1 1;
#X obj 232 371 random 1000;
#X connect 0 0 1 0;
#X connect 1 0 11 0;
#X connect 2 0 13 0;
#X connect 3 0 4 0;
#X connect 3 0 5 0;
#X connect 4 0 8 1;
#X connect 5 0 6 0;
#X connect 6 0 7 0;
#X connect 7 0 8 0;
#X connect 8 0 9 0;
#X connect 10 0 11 1;
#X connect 11 0 14 0;
#X connect 12 0 2 1;
#X connect 13 0 3 0;
#X connect 14 0 2 0;
