#N canvas -34 156 1920 976 12;
#X obj 543 401 *~, f 4;
#X msg 560 333 1;
#X msg 598 336 0;
#X msg 1034 307 1;
#X msg 1098 306 0;
#X obj 1041 360 *~, f 4;
#X obj 1158 457 *~, f 4;
#X obj 1080 534 *~, f 4;
#X obj 600 287 del 1 0.5 sec;
#X obj 1196 278 del 1 0.8 sec;
#X msg 318 461 start;
#X msg 450 460 stop;
#X obj 1202 505 sig~ 1;
#X obj 1174 393 sig~ 1;
#X obj 453 121 inlet~;
#X obj 941 118 inlet~;
#X obj 1079 615 outlet~;
#X obj 542 216 inlet;
#X msg 129 461 open recording1.wav;
#X obj 318 582 writesf~ 1;
#X connect 0 0 6 0;
#X connect 1 0 0 1;
#X connect 2 0 0 1;
#X connect 3 0 5 1;
#X connect 4 0 5 1;
#X connect 5 0 6 0;
#X connect 6 0 7 0;
#X connect 7 0 16 0;
#X connect 7 0 19 0;
#X connect 8 0 2 0;
#X connect 8 0 3 0;
#X connect 8 0 9 0;
#X connect 9 0 4 0;
#X connect 9 0 11 0;
#X connect 10 0 19 0;
#X connect 11 0 19 0;
#X connect 12 0 7 1;
#X connect 13 0 6 1;
#X connect 14 0 0 0;
#X connect 15 0 5 0;
#X connect 17 0 1 0;
#X connect 17 0 10 0;
#X connect 17 0 8 0;
#X connect 18 0 19 0;
