#N canvas 585 775 1920 976 12;
#X obj 504 220 vline~;
#X obj 499 284 *~;
#X floatatom 448 174 5 0 0 0 - - - 0;
#X obj 653 226 vline~;
#X obj 655 286 *~;
#X floatatom 653 180 5 0 0 0 - - - 0;
#X obj 606 75 del 1 0.5 sec;
#X msg 606 125 0.7 0 0 \, 0.68 100 5 \, 0.6 200 110 \, 0 400 200;
#X msg 306 129 1 0 0 \, 0.6 20 5 \, 0.45 26 290 \, 0 300 320;
#X obj 412 46 inlet;
#X obj 499 308 outlet~;
#X obj 655 310 outlet~;
#X connect 0 0 1 0;
#X connect 0 0 1 1;
#X connect 1 0 10 0;
#X connect 2 0 0 0;
#X connect 3 0 4 0;
#X connect 3 0 4 1;
#X connect 4 0 11 0;
#X connect 5 0 3 0;
#X connect 6 0 7 0;
#X connect 7 0 3 0;
#X connect 8 0 0 0;
#X connect 9 0 8 0;
#X connect 9 0 6 0;
