#N canvas 389 224 654 321 10;
#X obj 42 102 inlet~;
#X obj 101 105 inlet~;
#X obj 252 93 inlet~;
#X obj 245 145 cos~;
#X obj 291 122 -~ 0.25;
#X obj 290 150 cos~;
#X obj 37 207 *~;
#X obj 74 208 *~;
#X obj 161 203 *~;
#X obj 198 204 *~;
#X obj 37 234 +~;
#X obj 162 229 +~;
#X obj 36 263 outlet~;
#X obj 163 259 outlet~;
#X obj 293 177 *~ -1;
#X connect 0 0 6 0;
#X connect 0 0 8 0;
#X connect 1 0 7 0;
#X connect 1 0 9 0;
#X connect 2 0 3 0;
#X connect 2 0 4 0;
#X connect 3 0 6 1;
#X connect 3 0 9 1;
#X connect 4 0 5 0;
#X connect 5 0 7 1;
#X connect 5 0 14 0;
#X connect 6 0 10 0;
#X connect 7 0 10 1;
#X connect 8 0 11 0;
#X connect 9 0 11 1;
#X connect 10 0 12 0;
#X connect 11 0 13 0;
#X connect 14 0 8 1;
